<?xml version="1.0" encoding="UTF-8"?>
<svg id="Layer_2" data-name="Layer 2" xmlns="http://www.w3.org/2000/svg" viewBox="0 0 327.12 67.13">
  <defs>
    <style>
      .cls-1 {
        fill: #03263A;
      }
    </style>
  </defs>
  <g id="Layer_1-2" data-name="Layer 1">
    <g>
      <g>
        <path class="cls-1" d="M12,66.2H0V0h12v66.2Z"/>
        <path class="cls-1" d="M85.87,12h-26.45v54.2h-12V12h-26.5V0h64.96v12Z"/>
      </g>
      <path class="cls-1" d="M177.68,38.5c0,4.03-.7,7.74-2.1,11.13-1.4,3.39-3.33,6.3-5.79,8.75-2.46,2.45-5.39,4.36-8.77,5.75-3.39,1.38-7.06,2.08-11.03,2.08h-32.41c-.86,0-1.66-.15-2.4-.46s-1.38-.73-1.92-1.27-.96-1.18-1.27-1.92-.46-1.54-.46-2.4V6.05c0-.83.15-1.62.46-2.35s.73-1.38,1.27-1.94,1.18-.98,1.92-1.29,1.54-.46,2.4-.46h32.41c3.97,0,7.65.69,11.03,2.08,3.39,1.38,6.31,3.3,8.77,5.75,2.46,2.45,4.39,5.37,5.79,8.77,1.4,3.4,2.1,7.1,2.1,11.1v10.8ZM165.67,27.7c0-2.34-.38-4.48-1.13-6.42s-1.82-3.59-3.21-4.96-3.04-2.43-4.96-3.19c-1.92-.75-4.05-1.13-6.39-1.13h-26.45v42.2h26.45c2.34,0,4.47-.38,6.39-1.13,1.92-.75,3.58-1.82,4.96-3.19,1.38-1.37,2.45-3.02,3.21-4.94s1.13-4.07,1.13-6.44v-10.8Z"/>
      <path class="cls-1" d="M249.28,66.2h-43.3c-1.66,0-3.48-.29-5.45-.88s-3.79-1.55-5.47-2.89-3.08-3.08-4.2-5.22c-1.12-2.14-1.69-4.76-1.69-7.87V6.05c0-.83.15-1.62.46-2.35s.73-1.38,1.27-1.94,1.18-.98,1.92-1.29,1.54-.46,2.4-.46h54.06v12h-48.1v37.35c0,1.57.42,2.77,1.25,3.6s2.05,1.25,3.65,1.25h43.21v12ZM243.88,39.15h-37.9v-12.1h37.9v12.1Z"/>
      <path class="cls-1" d="M327.12,0l-31.35,63.85c-.49.98-1.22,1.78-2.19,2.38s-2.04.9-3.21.9-2.19-.3-3.16-.9-1.72-1.39-2.24-2.38L253.67,0h13.43l23.27,47.69L313.73,0h13.39Z"/>
    </g>
  </g>
</svg>